<svg xmlns="http://www.w3.org/2000/svg" width="58.699" height="71.569" viewBox="0 0 58.699 71.569">
  <g id="Grupo_16346" data-name="Grupo 16346" transform="translate(-3207.105 -1074.251)">
    <path id="Trazado_24121" data-name="Trazado 24121" d="M3279.337,1141.445a5.512,5.512,0,0,1,.865.01,2.222,2.222,0,0,1,.742.231c.138.077.3.081.458.156a4.623,4.623,0,0,1,1.181.754c1.183,1.108,23.587,23.54,24.562,24.542a15.437,15.437,0,0,1,1.348,1.511c.3.407.6.823.908,1.229a7.807,7.807,0,0,1,.481.842,12.8,12.8,0,0,1,1.891,6.493,4.98,4.98,0,0,1-.046,2.024.751.751,0,0,0,.263.769c.949.888,5.633,6.412,6.5,7.254a13.672,13.672,0,0,1,1.092,1.143,1.481,1.481,0,0,1,.324.872,1.58,1.58,0,0,1-.281.933,3.645,3.645,0,0,1-.546.494,1.486,1.486,0,0,1-1.115.11c-.848-.255-1.3-.984-1.885-1.538-.945-.89-4.365-5.156-5.648-6.44-.435-.435-.881-.859-1.3-1.306a1.657,1.657,0,0,1-.548-1.706,7.787,7.787,0,0,1,.041-1.335c.833-3.136-1.731-6.763-2.048-7.143a4.389,4.389,0,0,1-.409-.6,6.1,6.1,0,0,0-.661-.788c-.513-.616-1.092-1.173-1.657-1.74-.584-.586-20.409-20.364-21.219-21.2q-.982-1.011-1.994-1.989a1.8,1.8,0,0,0-1.7-.489,1.755,1.755,0,0,0-1.254.992,1.657,1.657,0,0,0-.243.917,2,2,0,0,0,.587,1.272c.376.35.721.731,1.083,1.094.387.388,11.268,11.245,11.862,11.84.612.613,1.223,1.226,1.828,1.846a1.631,1.631,0,0,1,.553,1.481,1.709,1.709,0,0,1-.6.969,1.52,1.52,0,0,1-1.777.059,17.72,17.72,0,0,1-1.806-1.736c-.678-.677-3.077-3.077-3.63-3.569a1.537,1.537,0,0,0-.84-.377,1.888,1.888,0,0,0-1.9.869,1.645,1.645,0,0,0-.209.479,1.986,1.986,0,0,0,.022,1.05,2.025,2.025,0,0,0,.624.95c.457.442,3.836,3.848,4.422,4.434q.584.585,1.181,1.158a1.535,1.535,0,0,1-.128,2.426,1.752,1.752,0,0,1-1.346.233.949.949,0,0,1-.568-.317c-.81-.792-1.6-1.606-2.416-2.391a2.012,2.012,0,0,0-1.395-.626,1.848,1.848,0,0,0-1.49.742,1.68,1.68,0,0,0-.4,1.4,2.335,2.335,0,0,0,.716,1.226c.832.809,1.636,1.647,2.453,2.472.154.156.326.3.469.459a2.668,2.668,0,0,1,.565.956,1.454,1.454,0,0,1-.077.912,1.4,1.4,0,0,1-.679.764,1.619,1.619,0,0,1-1.275.1,1.89,1.89,0,0,1-.82-.592,7.013,7.013,0,0,0-1.126-1.079,1.708,1.708,0,0,0-1.6-.283,1.867,1.867,0,0,0-.827,3.109q.513.558,1.064,1.081c.443.421.858.869,1.3,1.294.646.629,1.278,1.272,1.916,1.907s5.325,5.269,5.889,5.71c5.158,3.011,6.641,2.431,7.356,2.55.231.038,2.057-.184,2.721-.081a1.662,1.662,0,0,1,.81.583c.5.5.99,1.016,1.508,1.5.454.428.855.911,1.307,1.342.544.517,1.066,1.055,1.6,1.583.629.624,1.27,1.236,1.883,1.876a1.58,1.58,0,0,1,.532,1.122,1.458,1.458,0,0,1-.758,1.362,1.767,1.767,0,0,1-.7.252,1.709,1.709,0,0,1-1.322-.593c-.782-.766-1.557-1.541-2.331-2.315-.63-.63-1.254-1.266-1.881-1.9-.518-.524-1.029-1.056-1.562-1.564a.325.325,0,0,0-.4-.082.335.335,0,0,1-.16.021,15.358,15.358,0,0,1-2.225-.016,12.084,12.084,0,0,1-5.713-1.459c-.427-.244-1.467-.907-1.865-1.193-.666-.478-10.4-9.969-11.17-10.776-.432-.455-2.4-2.883-1.045-5.525a4.773,4.773,0,0,1,.879-1.328,5.521,5.521,0,0,1,1.281-1.039,1.683,1.683,0,0,1,.411-.192c.243-.064.3-.308.16-.542s-1.159-3.443.917-5.285a6.274,6.274,0,0,1,.973-.823,5.347,5.347,0,0,1,.563-.3c.186-.1.1-.185.033-.269-.176-.212-.375-.4-.547-.619a3.466,3.466,0,0,1-.223-.392c-.084-.139-1.7-3.178.165-5.284a4.329,4.329,0,0,1,.661-.792,4.164,4.164,0,0,1,1.1-.786c.093-.038.171-.11.268-.155s.073-.175-.008-.256c-.574-.567-1.155-1.127-1.725-1.7-.442-.444-.857-.917-1.311-1.349-.674-.641-1.311-1.317-1.971-1.969-.62-.613-1.252-1.212-1.814-1.883a5.477,5.477,0,0,1-.688-1.146,5.038,5.038,0,0,1-.371-2.794,1.917,1.917,0,0,1,.2-.674c.085-.165.1-.362.182-.54a5.112,5.112,0,0,1,1.2-1.656,7.194,7.194,0,0,1,.619-.487,5.051,5.051,0,0,1,.63-.343c.29-.148.624-.191.91-.314A4.464,4.464,0,0,1,3279.337,1141.445Z" transform="translate(-54.103 -54.052)" fill="#fff"/>
    <path id="Trazado_24122" data-name="Trazado 24122" d="M3210.323,1092.344c0,.477,0,.953,0,1.43,0,.416.135.814.177,1.228a15.332,15.332,0,0,0,.475,1.844c.08.165.137.377.2.563.074.2.132.417.227.618.106.224.209.453.309.683a10.212,10.212,0,0,0,.513,1c.162.284.339.56.5.847a5.314,5.314,0,0,0,.553.767c.23.281.427.586.68.85a20.723,20.723,0,0,0,1.862,1.8,12.622,12.622,0,0,0,1.394,1c.456.277.926.535,1.405.775a12.737,12.737,0,0,0,1.406.622c.349.125.711.237,1.074.334a4.112,4.112,0,0,1,1.021.356,2.094,2.094,0,0,1,.529.459,1.1,1.1,0,0,1,.231.558,1.529,1.529,0,0,1-.423,1.45,1.093,1.093,0,0,1-.757.384,3.693,3.693,0,0,1-.77-.015,2.745,2.745,0,0,1-.813-.234.218.218,0,0,0-.086-.027,5.542,5.542,0,0,1-.816-.258,2.387,2.387,0,0,1-.541-.193c-.17-.093-.376-.07-.525-.218a1.118,1.118,0,0,0-.349-.158c-.472-.209-.924-.454-1.382-.691a14.84,14.84,0,0,1-1.844-1.168,17.35,17.35,0,0,1-2.457-2.177c-.409-.432-.782-.892-1.168-1.341-.233-.272-.42-.583-.635-.871-.328-.438-.555-.938-.853-1.392a9.586,9.586,0,0,1-.5-.937c-.119-.234-.221-.488-.34-.724-.147-.291-.243-.6-.358-.9-.073-.187-.126-.4-.2-.58-.163-.383-.191-.8-.346-1.183a3.439,3.439,0,0,1-.143-.628c-.07-.355-.12-.724-.2-1.073-.167-.706-.1-1.425-.208-2.133a4.314,4.314,0,0,1,.041-1.607,1.422,1.422,0,0,0,.023-.4,10.118,10.118,0,0,1,.208-1.9,6.323,6.323,0,0,1,.339-1.386c.074-.2.07-.421.144-.63.087-.246.178-.491.257-.737.06-.186.14-.367.194-.557a4.06,4.06,0,0,1,.321-.79c.135-.252.252-.513.368-.772.139-.311.326-.594.483-.893.11-.209.239-.409.362-.611.1-.171.217-.338.32-.51.159-.265.379-.484.546-.747a5.633,5.633,0,0,1,.719-.906c.29-.3.559-.617.861-.9a20.756,20.756,0,0,1,1.694-1.527c.409-.31.82-.619,1.231-.925.39-.29.855-.477,1.271-.735a14.2,14.2,0,0,1,1.951-.933c.434-.186.9-.326,1.362-.474.441-.142.895-.231,1.338-.355a7.027,7.027,0,0,1,.969-.2,15.017,15.017,0,0,0,1.632-.224.927.927,0,0,1,.209-.017c.61-.006,1.22,0,1.829-.019a14.479,14.479,0,0,1,1.86.176,4.6,4.6,0,0,1,.936.13c.46.144.934.228,1.4.353.366.1.731.21,1.09.326a8.256,8.256,0,0,1,1.3.508c.337.176.7.3,1.043.472.269.132.525.291.784.444s.533.339.812.486a5.456,5.456,0,0,1,.637.446c.3.22.611.432.9.668s.582.525.88.779a3.984,3.984,0,0,1,.719.673c.412.579.982,1.018,1.378,1.616.273.412.544.831.847,1.219a7.739,7.739,0,0,1,.634,1.022c.164.293.308.6.459.908.126.253.253.506.366.765.078.18.129.371.2.556s.145.4.233.587a2.473,2.473,0,0,1,.143.4c.062.235.156.462.2.7a5.359,5.359,0,0,0,.211.842,2.972,2.972,0,0,1,.154.745c.053.549.118,1.1.2,1.642a15.668,15.668,0,0,1,.07,2.544,8.183,8.183,0,0,1-.206,1.633,3.343,3.343,0,0,0-.046.512,1.684,1.684,0,0,1-.86,1.456,1.387,1.387,0,0,1-1,.163,1.762,1.762,0,0,1-1.024-.708.8.8,0,0,1-.188-.466,8.832,8.832,0,0,1,.033-1.427,17.712,17.712,0,0,0,.085-3.837,5.027,5.027,0,0,0-.136-1.044c-.1-.4-.167-.8-.286-1.187-.1-.338-.223-.681-.344-1.017a8.634,8.634,0,0,1-.337-.937,2.538,2.538,0,0,0-.32-.654c-.121-.212-.232-.434-.35-.647-.141-.256-.276-.513-.442-.754-.278-.4-.517-.838-.832-1.208a15.436,15.436,0,0,0-2.458-2.478c-.406-.3-.821-.594-1.213-.918-.16-.132-.393-.2-.577-.327a8.134,8.134,0,0,0-1.277-.667,11.585,11.585,0,0,0-1.219-.483c-.333-.107-.674-.212-1-.352-.209-.09-.448-.064-.674-.152a2.137,2.137,0,0,0-.6-.149c-.681-.05-1.362-.13-2.036-.209a22.483,22.483,0,0,0-2.49.068,6.168,6.168,0,0,0-1.1.153,11.077,11.077,0,0,0-1.136.274,5.222,5.222,0,0,0-1.024.359,3.434,3.434,0,0,1-.451.153c-.425.153-.813.387-1.229.542a6.9,6.9,0,0,0-.894.479,10.361,10.361,0,0,0-.944.617,6.691,6.691,0,0,1-.73.515,3.86,3.86,0,0,0-.612.524,13.381,13.381,0,0,0-1.883,1.974,13.1,13.1,0,0,0-1.024,1.446,15.027,15.027,0,0,0-.912,1.779c-.171.4-.313.815-.486,1.215-.088.2-.136.468-.215.675-.1.261-.012.572-.224.791a.066.066,0,0,0-.01.045,4.817,4.817,0,0,1-.179,1.086A13.853,13.853,0,0,0,3210.323,1092.344Z" transform="translate(0 0)" fill="#fff"/>
    <path id="Trazado_24123" data-name="Trazado 24123" d="M3247.51,1122.179a8.817,8.817,0,0,0,.012,1.17,2.878,2.878,0,0,0,.229.907,2.656,2.656,0,0,1,.144.507,4.822,4.822,0,0,0,.481,1.1,7.994,7.994,0,0,0,1.288,1.741,2.8,2.8,0,0,1,.491,1.231,1.7,1.7,0,0,1-.913,1.278,1.783,1.783,0,0,1-1.487-.1,3.755,3.755,0,0,1-.948-.949,8.38,8.38,0,0,1-1-1.419,9.178,9.178,0,0,1-.757-1.567c-.132-.363-.249-.739-.36-1.112a12.064,12.064,0,0,1-.34-1.938,5.414,5.414,0,0,1,.043-1.91,1.981,1.981,0,0,0,.036-.349,8.592,8.592,0,0,1,.24-1.249,10.37,10.37,0,0,1,.345-1.141,5.658,5.658,0,0,1,.33-.761c.113-.232.208-.471.338-.7a11.569,11.569,0,0,1,1.646-2.222,9.259,9.259,0,0,1,.923-.876,12.192,12.192,0,0,1,1.548-1.068c.425-.241.874-.429,1.313-.634.174-.081.4-.121.574-.206.234-.116.49-.1.722-.212a2.3,2.3,0,0,1,.665-.163,10.354,10.354,0,0,1,2.271-.173c.218.015.439-.011.656.014.488.056.972.132,1.455.234.27.057.538.13.805.195a1.8,1.8,0,0,1,.591.216,3.052,3.052,0,0,0,.471.163,13.1,13.1,0,0,1,1.463.744,9.193,9.193,0,0,1,1.328.966,5.138,5.138,0,0,1,.867.858,1.492,1.492,0,0,1-.389,2.122,2.063,2.063,0,0,1-2.089-.246,10.63,10.63,0,0,0-1.46-1.091,6.842,6.842,0,0,0-.988-.5c-.353-.139-.733-.242-1.1-.353s-.747-.1-1.115-.181a3.011,3.011,0,0,0-1.5.032.577.577,0,0,1-.231.028,2.519,2.519,0,0,0-1.038.189,9.565,9.565,0,0,0-1.256.489,8.313,8.313,0,0,0-1.437.894,7.672,7.672,0,0,0-1.05,1.011,5.029,5.029,0,0,0-.631.834,4.688,4.688,0,0,0-.495.906,2.128,2.128,0,0,1-.21.465,1.6,1.6,0,0,0-.177.5,6.934,6.934,0,0,1-.192.768A6.444,6.444,0,0,0,3247.51,1122.179Z" transform="translate(-29.912 -29.844)" fill="#fff"/>
  </g>
</svg>
