<svg xmlns="http://www.w3.org/2000/svg" width="25.413" height="25.416" viewBox="0 0 25.413 25.416">
  <g id="Grupo_16342" data-name="Grupo 16342" transform="translate(0.499 0.501)">
    <path id="Trazado_24072" data-name="Trazado 24072" d="M1284.363,813.207v3.063h-12.2V813.2c-.179.047-.327.085-.473.126-.828.232-1.652.479-2.484.694a2.52,2.52,0,0,1-3.095-1.956,2.731,2.731,0,0,1,.59-2.232c.738-.98,1.449-1.981,2.173-2.972q1.108-1.517,2.22-3.032c.31-.422.608-.854.943-1.256a3.813,3.813,0,0,1,2.556-1.392,6.536,6.536,0,0,1,1.981.177,6.638,6.638,0,0,0,1.852.2c.685-.071,1.365-.2,2.044-.313a3.971,3.971,0,0,1,3.461.77,6.8,6.8,0,0,1,.968,1.112c1.056,1.419,2.094,2.852,3.137,4.28.647.885,1.3,1.769,1.936,2.66a2.549,2.549,0,0,1-1.729,4.018,2.62,2.62,0,0,1-1.073-.089c-.889-.263-1.782-.51-2.674-.762A1.041,1.041,0,0,0,1284.363,813.207Zm-12.2-6.493c0-.664,0-1.329,0-1.993a1.282,1.282,0,0,1,.037-.352c.159-.539.521-.663,1.079-.641a6.335,6.335,0,0,1,1.651.346,25.569,25.569,0,0,1,3.194,1.3.3.3,0,0,0,.272.008c.757-.319,1.514-.641,2.281-.934a10.273,10.273,0,0,1,2.632-.7.856.856,0,0,1,1.056.821c.021.437.024.876.04,1.313q.036.994.079,1.987c.012.287.038.574.053.861a.206.206,0,0,0,.164.206q.978.347,1.948.715a.7.7,0,0,1,.283.194.475.475,0,0,1-.014.542.469.469,0,0,1-.57.132,21.135,21.135,0,0,0-3.159-1,2.227,2.227,0,0,0-1.424.074.883.883,0,0,0-.3,1.526,1.9,1.9,0,0,0,.682.442c.694.241,1.4.443,2.107.646.975.28,1.953.549,2.931.816a2.119,2.119,0,0,0,.965.136,1.619,1.619,0,0,0,1.057-2.577q-.877-1.2-1.751-2.4-1.786-2.446-3.575-4.89a2.8,2.8,0,0,0-2.662-1.194c-.524.047-1.039.172-1.562.24a8.329,8.329,0,0,1-1.521.136,18.794,18.794,0,0,1-2.142-.292,4.15,4.15,0,0,0-1.61-.03,3.063,3.063,0,0,0-1.835,1.264c-.932,1.264-1.851,2.537-2.777,3.806-.827,1.133-1.657,2.262-2.481,3.4a1.539,1.539,0,0,0-.266,1.293,1.62,1.62,0,0,0,1.977,1.219c.62-.17,1.236-.354,1.854-.53,1.034-.293,2.07-.582,3.1-.878a2.594,2.594,0,0,0,1.036-.528.914.914,0,0,0-.269-1.613,1.857,1.857,0,0,0-1.209-.089c-.535.147-1.06.33-1.584.511-.491.169-.975.357-1.463.532a.443.443,0,0,1-.458-.056.454.454,0,0,1,.125-.8q.934-.361,1.878-.7a.186.186,0,0,0,.147-.213C1272.156,808.081,1272.159,807.4,1272.159,806.714Zm3.245,5.412c-.017-.015-.009,0,0,0q1.4.465,2.8.926a.279.279,0,0,0,.158-.017c.483-.159.965-.322,1.448-.481.442-.146.886-.289,1.336-.435a7.38,7.38,0,0,1-.535-.57,1.693,1.693,0,0,1-.257-1.774,2.059,2.059,0,0,1,1.924-1.245,9.891,9.891,0,0,1,1.319.083c-.056-1.275-.114-2.6-.173-3.927a1.083,1.083,0,0,0-.241,0c-.439.1-.883.194-1.313.326a27.389,27.389,0,0,0-3.458,1.378.32.32,0,0,1-.31-.007,22.722,22.722,0,0,0-4.035-1.594c-.315-.081-.64-.12-.976-.181v4.009a3.273,3.273,0,0,1,1.975.09,1.8,1.8,0,0,1,1.013,2.562A6.056,6.056,0,0,1,1275.4,812.126Zm-2.318,3.225h10.325v-3c-.122.038-.228.07-.333.105q-2.328.772-4.657,1.542a.453.453,0,0,1-.264.011q-2.15-.7-4.3-1.414c-.254-.084-.508-.165-.775-.251Z" transform="translate(-1266.069 -791.854)" fill="#00aeef" stroke="#00aeef" stroke-width="1"/>
    <path id="Trazado_24073" data-name="Trazado 24073" d="M1481.535,558.984a4.548,4.548,0,1,1-4.328-4.53A4.538,4.538,0,0,1,1481.535,558.984Zm-.94,0a3.614,3.614,0,1,0-3.621,3.632A3.606,3.606,0,0,0,1480.6,558.98Z" transform="translate(-1464.668 -554.449)" fill="#00aeef" stroke="#00aeef" stroke-width="1"/>
  </g>
</svg>
