<svg xmlns="http://www.w3.org/2000/svg" width="28.09" height="25.538" viewBox="0 0 28.09 25.538">
  <g id="Grupo_16341" data-name="Grupo 16341" transform="translate(-38.5 -15.48)">
    <path id="bx-heart" d="M15.073,5.075a7.738,7.738,0,0,0-10.738.262,7.709,7.709,0,0,0,0,11l9.591,9.591a1.307,1.307,0,0,0,2.181.109l9.7-9.7A7.782,7.782,0,0,0,15.073,5.074Zm8.883,2.106a5.123,5.123,0,0,1,0,7.31l-8.886,8.886L6.187,14.491a5.167,5.167,0,1,1,7.307-7.307l.654.654a1.307,1.307,0,0,0,1.85,0l.654-.654a5.253,5.253,0,0,1,7.3,0Z" transform="translate(37.473 13.443)" fill="#db4945" stroke="#fff" stroke-width="2"/>
    <path id="bx-heart-2" data-name="bx-heart" d="M15.073,5.075a7.738,7.738,0,0,0-10.738.262,7.709,7.709,0,0,0,0,11l9.591,9.591a1.307,1.307,0,0,0,2.181.109l9.7-9.7A7.782,7.782,0,0,0,15.073,5.074Zm8.883,2.106a5.123,5.123,0,0,1,0,7.31l-8.886,8.886L6.187,14.491a5.167,5.167,0,1,1,7.307-7.307l.654.654a1.307,1.307,0,0,0,1.85,0l.654-.654a5.253,5.253,0,0,1,7.3,0Z" transform="translate(37.473 12.963)" fill="#db4945"/>
  </g>
</svg>
