<svg xmlns="http://www.w3.org/2000/svg" width="24.624" height="24.625" viewBox="0 0 24.624 24.625">
  <g id="bx-search-alt" transform="translate(-2 -2)">
    <path id="Trazado_24163" data-name="Trazado 24163" d="M12.53,23.06a10.466,10.466,0,0,0,6.444-2.221l5.788,5.785,1.861-1.861-5.786-5.786A10.518,10.518,0,1,0,12.53,23.06Zm0-18.428a7.9,7.9,0,1,1-7.9,7.9A7.906,7.906,0,0,1,12.53,4.633Z" fill="#00aeef"/>
    <path id="Trazado_24164" data-name="Trazado 24164" d="M12.752,9.392a2.621,2.621,0,0,1,.774,1.861h2.633a5.235,5.235,0,0,0-1.545-3.722,5.381,5.381,0,0,0-7.44,0L9.033,9.394A2.691,2.691,0,0,1,12.752,9.392Z" transform="translate(1.636 1.277)" fill="#00aeef"/>
  </g>
</svg>
