<svg xmlns="http://www.w3.org/2000/svg" width="46.15" height="61.112" viewBox="0 0 46.15 61.112">
  <g id="Grupo_16345" data-name="Grupo 16345" transform="translate(-269.827 -316)">
    <path id="Trazado_24043" data-name="Trazado 24043" d="M308.646,316a9.856,9.856,0,0,1,.89.439,2.974,2.974,0,0,1,1.452,2.644c.009.592,0,1.184,0,1.861.608,0,1.158,0,1.707,0a3,3,0,0,1,3.255,3.273q.006,6.92,0,13.84a4.478,4.478,0,0,1-.014.477,1.171,1.171,0,0,1-2.3.205,3.366,3.366,0,0,1-.074-.826q-.007-6.771,0-13.541c0-.936-.09-1.024-1.024-1.027-.492,0-.983,0-1.548,0v.885q0,18.045.012,36.09a2.448,2.448,0,0,1-.791,1.891q-4.628,4.568-9.2,9.195a2.317,2.317,0,0,1-1.789.747q-10.59-.027-21.181-.011h-.8a12.391,12.391,0,0,0,.015,1.64,1.07,1.07,0,0,0,1.044.9,4.758,4.758,0,0,0,.6.01h33.472c1.141,0,1.19-.048,1.19-1.162q0-11.99,0-23.981a3.481,3.481,0,0,1,.082-.884,1.117,1.117,0,0,1,1.222-.827,1.139,1.139,0,0,1,1.066,1.022,5.083,5.083,0,0,1,.018.6c0,8.073-.035,16.147.024,24.219a3.246,3.246,0,0,1-3.441,3.431c-11.217-.048-22.434-.024-33.651-.024-2.669,0-4.085-1.414-4.088-4.083,0-.255,0-.51,0-.861-.6,0-1.143,0-1.691,0a2.993,2.993,0,0,1-3.27-3.258q0-24.816-.009-49.632A3.153,3.153,0,0,1,272.25,316Zm-10.073,53.742c0-.315,0-.53,0-.745,0-1.988,0-3.976,0-5.964a2.99,2.99,0,0,1,3.284-3.3q3.012-.005,6.025,0h.714v-.709q0-19.771,0-39.542c0-.987-.109-1.095-1.09-1.095h-34.18c-1.037,0-1.1.065-1.1,1.129q0,24.542,0,49.084c0,1.093.046,1.139,1.15,1.139h25.2Zm8.139-7.553a.563.563,0,0,0-.163-.057q-2.439-.007-4.878-.007c-.5,0-.706.268-.7.751.006,1.586,0,3.172.006,4.759a.937.937,0,0,0,.06.237Z" transform="translate(0 0)" fill="#fff"/>
    <path id="Trazado_24044" data-name="Trazado 24044" d="M546.706,484.026a1.183,1.183,0,0,1-1.131,1.222,1.222,1.222,0,0,1-1.238-1.192,1.189,1.189,0,0,1,1.178-1.178A1.152,1.152,0,0,1,546.706,484.026Z" transform="translate(-230.763 -140.284)" fill="#fff"/>
    <path id="Trazado_24045" data-name="Trazado 24045" d="M299.529,525.318a9.807,9.807,0,1,1,9.267,10.057A9.789,9.789,0,0,1,299.529,525.318Zm9.8-7.134a7.406,7.406,0,1,0,7.42,7.385A7.416,7.416,0,0,0,309.331,518.184Z" transform="translate(-24.961 -167.96)" fill="#fff"/>
    <path id="Trazado_24046" data-name="Trazado 24046" d="M339.177,452.818h9.6a5.739,5.739,0,0,1,.655.019,1.174,1.174,0,0,1,.255,2.271,2.3,2.3,0,0,1-.7.1q-9.835.008-19.67,0a2.474,2.474,0,0,1-.647-.076,1.172,1.172,0,0,1,.2-2.3,6.443,6.443,0,0,1,.655-.015Z" transform="translate(-48.729 -115.013)" fill="#fff"/>
    <path id="Trazado_24047" data-name="Trazado 24047" d="M339.148,482.813c3.259,0,6.517,0,9.776.006a2.285,2.285,0,0,1,.922.156.939.939,0,0,1,.583,1.122,2.366,2.366,0,0,1-.732.985c-.161.141-.491.119-.745.119q-9.805.009-19.611,0c-.1,0-.2,0-.3,0a1.235,1.235,0,0,1-1.248-1.248,1.19,1.19,0,0,1,1.28-1.136c3.139-.009,6.279,0,9.418,0Z" transform="translate(-48.728 -140.228)" fill="#fff"/>
    <path id="Trazado_24048" data-name="Trazado 24048" d="M339.153,422.811q4.828,0,9.656,0a4.8,4.8,0,0,1,.654.025,1.173,1.173,0,0,1,.133,2.291,2.948,2.948,0,0,1-.708.066q-9.745,0-19.49,0a3.085,3.085,0,0,1-.708-.062,1.17,1.17,0,0,1,.153-2.3,5.523,5.523,0,0,1,.655-.02Z" transform="translate(-48.73 -89.789)" fill="#fff"/>
    <path id="Trazado_24049" data-name="Trazado 24049" d="M339.183,392.786q4.8,0,9.6,0a4.542,4.542,0,0,1,.713.034,1.172,1.172,0,0,1,.073,2.292,3.7,3.7,0,0,1-.769.057q-9.656,0-19.311,0a4.109,4.109,0,0,1-.712-.041,1.171,1.171,0,0,1,.041-2.315,4.728,4.728,0,0,1,.654-.027Q334.326,392.785,339.183,392.786Z" transform="translate(-48.73 -64.549)" fill="#fff"/>
    <path id="Trazado_24050" data-name="Trazado 24050" d="M347.509,542.571a1.313,1.313,0,0,1-1.888,1.151,6.326,6.326,0,0,0-1.412-.407c-.162-.026-.365.206-.55.32.122.155.213.371.373.454a13.3,13.3,0,0,0,1.313.56,2.858,2.858,0,0,1,2.03,2.482,3.1,3.1,0,0,1-1.525,3.082c-.271.174-.492.3-.556.684a1.058,1.058,0,0,1-1.066.88,1.21,1.21,0,0,1-1.181-.749,1.739,1.739,0,0,0-.582-.555c-.295-.2-.644-.316-.934-.52a1.169,1.169,0,0,1-.343-1.585,1.231,1.231,0,0,1,1.565-.45,5.331,5.331,0,0,0,1.346.383.778.778,0,0,0,.888-.7c.094-.51-.286-.627-.642-.778a15.826,15.826,0,0,1-1.734-.781,2.739,2.739,0,0,1-.131-4.667,1.763,1.763,0,0,0,.551-.687,1.2,1.2,0,0,1,1.084-.8,1.045,1.045,0,0,1,1.12.718.9.9,0,0,0,.688.622,2.52,2.52,0,0,1,.9.452A5.51,5.51,0,0,1,347.509,542.571Z" transform="translate(-59.842 -188.206)" fill="#fff"/>
  </g>
</svg>
