<svg xmlns="http://www.w3.org/2000/svg" width="32.144" height="23.625" viewBox="0 0 32.144 23.625">
  <g id="Grupo_16339" data-name="Grupo 16339" transform="translate(-727.188 -1111.036)">
    <path id="Trazado_24057" data-name="Trazado 24057" d="M743.261,1134.66q-5.5,0-10.992,0a4.844,4.844,0,0,1-5.077-5.051q-.007-6.677,0-13.353c0-.163-.007-.326,0-.488a1.04,1.04,0,0,1,2.067-.113,8.589,8.589,0,0,1,.039,1.38q0,6.188,0,12.376a2.793,2.793,0,0,0,3.106,3.124q10.87.006,21.74,0a2.777,2.777,0,0,0,3.07-3.078q.01-6.6,0-13.191a2.788,2.788,0,0,0-3.13-3.1q-10.789,0-21.577,0a6.186,6.186,0,0,1-.651-.006.985.985,0,0,1-.97-1.009,1.007,1.007,0,0,1,.89-1.088,3.13,3.13,0,0,1,.649-.021q10.911,0,21.821,0a4.839,4.839,0,0,1,5.078,5.049q.008,6.758,0,13.516a4.842,4.842,0,0,1-5.075,5.052Q748.757,1134.664,743.261,1134.66Z" transform="translate(0 0)" fill="#00aeef"/>
    <path id="Trazado_24058" data-name="Trazado 24058" d="M858.881,1144.986a1.013,1.013,0,0,1-.966,1.11.982.982,0,0,1-1.13-.912c-.189-.953-.676-1.422-1.346-1.3a1.184,1.184,0,0,0,.122,2.361,3.392,3.392,0,0,1,2.508,1.156,3.276,3.276,0,0,1-.879,5.028c-.356.209-.568.382-.566.847a1,1,0,0,1-1.062,1.1c-.635-.015-.987-.431-1.063-1.114a1.185,1.185,0,0,0-.5-.768,3.465,3.465,0,0,1-1.7-2.37c-.168-.847.179-1.482.843-1.588s1.081.266,1.244,1.157c.112.615.49,1.063,1.067,1.031a1.529,1.529,0,0,0,1.137-.68,1.764,1.764,0,0,0-.238-1.3c-.11-.211-.55-.315-.854-.348a3.323,3.323,0,0,1-1.423-6.285,1.09,1.09,0,0,0,.427-.734,1.06,1.06,0,0,1,1.066-1.107,1,1,0,0,1,1.056,1.1c-.006.469.211.645.57.845A3.228,3.228,0,0,1,858.881,1144.986Z" transform="translate(-104.687 -24.464)" fill="#00aeef"/>
    <path id="Trazado_24059" data-name="Trazado 24059" d="M759.716,1179.179c-1.651,0-3.3,0-4.954,0-.847,0-1.368-.395-1.39-1.029-.022-.661.522-1.088,1.412-1.088q5.035,0,10.07,0c.865,0,1.362.379,1.381,1.029.02.68-.5,1.087-1.4,1.089C763.126,1179.182,761.421,1179.179,759.716,1179.179Z" transform="translate(-21.918 -55.269)" fill="#00aeef"/>
    <path id="Trazado_24060" data-name="Trazado 24060" d="M759.771,1146.187c-1.679,0-3.357,0-5.036,0-.84,0-1.362-.412-1.365-1.052s.529-1.066,1.356-1.067q5.076-.006,10.152,0c.849,0,1.354.405,1.357,1.059s-.491,1.057-1.348,1.06C763.182,1146.19,761.477,1146.187,759.771,1146.187Z" transform="translate(-21.918 -27.648)" fill="#00aeef"/>
    <path id="Trazado_24061" data-name="Trazado 24061" d="M759.819,1210.04c1.679,0,3.357,0,5.036,0,.869,0,1.36.374,1.379,1.028.02.675-.506,1.09-1.4,1.091q-5.036,0-10.071,0c-.838,0-1.367-.4-1.388-1.034-.021-.666.516-1.083,1.413-1.085C756.462,1210.037,758.141,1210.04,759.819,1210.04Z" transform="translate(-21.917 -82.877)" fill="#00aeef"/>
  </g>
</svg>
