<svg xmlns="http://www.w3.org/2000/svg" width="25.57" height="25.805" viewBox="0 0 25.57 25.805">
  <g id="Grupo_16343" data-name="Grupo 16343" transform="translate(0.402 0.401)">
    <path id="Trazado_24074" data-name="Trazado 24074" d="M1509.562,824.568q-1.767,0-3.534,0a1.5,1.5,0,0,0-.394.027c-.393.11-.471.4-.2.675.2.2.39.4.589.59.145.14.138.238-.017.388-.808.783-1.6,1.58-2.4,2.373-.154.153-.289.318-.526.093-.256-.243-.079-.387.085-.551.609-.607,1.208-1.225,1.83-1.82.23-.22.211-.359-.006-.575q-2.8-2.783-5.588-5.587c-.207-.209-.34-.217-.546,0-.606.629-1.232,1.239-1.849,1.857-.157.158-.3.3-.526.08s-.106-.362.059-.527c.78-.774,1.56-1.548,2.329-2.332.207-.212.358-.2.559,0,.239.243.452.665.749.662.344,0,.545-.452.814-.7a15.888,15.888,0,0,1,2.262-2.044c1.576-.977,4.363-.955,5.747.448a1.08,1.08,0,0,0,.79.316c.939.009,1.877.038,2.816.073a1.845,1.845,0,0,1,1.446.613c.178.212.326.2.536.056q.632-.447,1.288-.859a1.239,1.239,0,0,0,.448-.636,3.265,3.265,0,0,1,3.836-1.994,1.064,1.064,0,0,1,.729,1.72,42.161,42.161,0,0,1-2.752,4.027,24.09,24.09,0,0,1-2.632,2.407c-.229.2-.464.393-.7.586a2.764,2.764,0,0,1-1.835.634C1511.838,824.563,1510.7,824.568,1509.562,824.568Zm-.157-.644c1.2,0,2.408-.008,3.613,0a1.966,1.966,0,0,0,1.324-.45c.832-.7,1.658-1.4,2.472-2.114a22.621,22.621,0,0,0,3.532-4.814c.235-.354.117-.576-.3-.7a2.455,2.455,0,0,0-2.964,1.315,3.591,3.591,0,0,1-1.6,1.718c-.216.127-.412.291-.631.412a.709.709,0,0,0-.385.673,1.644,1.644,0,0,1-1.522,1.565c-1.242.043-2.487.015-3.731.019-.252,0-.313-.141-.3-.36.016-.294.228-.28.429-.281,1.125,0,2.25.006,3.375-.007a1.113,1.113,0,0,0,1.146-1.122,1.129,1.129,0,0,0-1.119-1.112c-.951-.083-1.9-.05-2.855-.076a1.857,1.857,0,0,1-1.274-.453,4.352,4.352,0,0,0-5.637.074c-.7.664-1.367,1.365-2.058,2.04-.18.176-.2.3-.01.489q1.777,1.76,3.537,3.537c.184.186.329.2.484-.008a.958.958,0,0,1,.872-.351C1507,823.935,1508.2,823.924,1509.405,823.924Z" transform="translate(-1496.363 -803.825)" fill="#00aeef" stroke="#00aeef" stroke-width="0.8"/>
    <path id="Trazado_24075" data-name="Trazado 24075" d="M1606.021,684.442a8.184,8.184,0,0,1,2.071-5.439,6.2,6.2,0,0,1,1.73-1.314.589.589,0,0,0,.344-.557,4.7,4.7,0,0,0-.367-1.971,5.3,5.3,0,0,1-.275-.91.855.855,0,0,1,1.133-1.049.978.978,0,0,0,.543.006,1.094,1.094,0,0,1,.39-.049,15.38,15.38,0,0,0,2.354,0c.657-.045,1.055.514.865,1.224a8.881,8.881,0,0,1-.362,1.092,4.08,4.08,0,0,0-.248,1.711.489.489,0,0,0,.279.472,7.553,7.553,0,0,1,3.862,6.679c.017.3-.067.455-.4.422-.28-.029-.24-.235-.248-.413a8.064,8.064,0,0,0-.94-3.534,6.3,6.3,0,0,0-2.676-2.628,1.189,1.189,0,0,0-.577-.113c-.741,0-1.486.047-2.221-.013a2.566,2.566,0,0,0-1.792.6,6.93,6.93,0,0,0-2.752,4.825,7.841,7.841,0,0,0-.081,1.384c.008.238-.064.375-.335.37s-.308-.15-.3-.362C1606.025,684.733,1606.021,684.588,1606.021,684.442Zm6.148-8.583v0c.4,0,.794,0,1.19,0a.325.325,0,0,0,.367-.232c.148-.48.315-.954.447-1.438.086-.314-.071-.442-.4-.344a1.007,1.007,0,0,1-.58.033c-.6-.159-1.217.116-1.818-.07a.117.117,0,0,0-.076.02.828.828,0,0,1-.722,0c-.309-.112-.484.046-.391.361a3.486,3.486,0,0,0,.594,1.572c.3.291.888.061,1.346.093Zm.005,1.566v0h1.067c.311,0,.312-.22.309-.44s.028-.475-.314-.475c-.711,0-1.423,0-2.134,0-.349,0-.315.237-.316.463s-.026.466.32.459S1611.819,677.425,1612.175,677.425Z" transform="translate(-1597.304 -673.158)" fill="#00aeef" stroke="#00aeef" stroke-width="0.8"/>
    <path id="Trazado_24076" data-name="Trazado 24076" d="M1661.413,756.558c.216-.044.3.024.362.26a1.156,1.156,0,0,0,1.318.6.873.873,0,0,0,.8-.948.751.751,0,0,0-.79-.711,3.652,3.652,0,0,1-.96-.157,1.5,1.5,0,0,1-1.106-1.409,1.536,1.536,0,0,1,1.063-1.365c.332-.091.41-.257.363-.548s.085-.351.353-.346c.25,0,.418.03.363.335s.07.462.392.563a1.338,1.338,0,0,1,.97,1.077c.027.144.128.312-.1.323-.184.009-.461.14-.535-.165-.177-.721-1.092-.824-1.589-.614a.805.805,0,0,0-.561.962.912.912,0,0,0,.889.623,2.038,2.038,0,0,1,1.39.411,1.42,1.42,0,0,1-.46,2.481c-.318.128-.44.264-.392.583.035.234-.021.363-.308.349-.262-.013-.457-.039-.4-.364.05-.307-.062-.45-.373-.554a1.427,1.427,0,0,1-.978-1.026C1661.036,756.642,1661.086,756.486,1661.413,756.558Z" transform="translate(-1647.943 -745.673)" fill="#00aeef" stroke="#00aeef" stroke-width="0.8"/>
    <path id="Trazado_24077" data-name="Trazado 24077" d="M1525.134,892.652c-.138.212-.286.453-.526.495a.391.391,0,0,1-.393-.362.622.622,0,0,1,.494-.5C1524.911,892.246,1525.026,892.469,1525.134,892.652Z" transform="translate(-1522 -874.864)" fill="#00aeef" stroke="#00aeef" stroke-width="0.8"/>
    <path id="Trazado_24078" data-name="Trazado 24078" d="M1509.584,908.184c-.2-.091-.424-.233-.4-.4a.629.629,0,0,1,.5-.493.365.365,0,0,1,.383.364C1510.038,907.9,1509.791,908.042,1509.584,908.184Z" transform="translate(-1508.165 -888.677)" fill="#00aeef" stroke="#00aeef" stroke-width="0.8"/>
  </g>
</svg>
