<svg xmlns="http://www.w3.org/2000/svg" width="49" height="48" viewBox="0 0 49 48">
  <g id="Grupo_16360" data-name="Grupo 16360" transform="translate(-929 -338)">
    <rect id="Rectángulo_6446" data-name="Rectángulo 6446" width="49" height="48" rx="8" transform="translate(929 338)" fill="#7d2991"/>
    <path id="bxs-home" d="M21.743,12.331l-9-10a1.03,1.03,0,0,0-1.486,0l-9,10A1,1,0,0,0,3,14H5v7a1,1,0,0,0,1,1H9a1,1,0,0,0,1-1V17h4v4a1,1,0,0,0,1,1h3a1,1,0,0,0,1-1V14h2a1,1,0,0,0,.743-1.669Z" transform="translate(941 349.985)" fill="#fff"/>
  </g>
</svg>
