<svg xmlns="http://www.w3.org/2000/svg" width="49" height="48" viewBox="0 0 49 48">
  <g id="Grupo_16356" data-name="Grupo 16356" transform="translate(-929 -551)">
    <rect id="Rectángulo_6595" data-name="Rectángulo 6595" width="49" height="48" rx="8" transform="translate(929 551)" fill="#68b241"/>
    <g id="Grupo_16337" data-name="Grupo 16337" transform="translate(-438.744 -610.885)">
      <path id="Trazado_24087" data-name="Trazado 24087" d="M1382.66,1199.239a9.224,9.224,0,0,1,6.395-.15c2.784.982,5.466,2.255,8.186,3.417,1.6.683,3.151,1.49,4.785,2.071a10.943,10.943,0,0,0,8.654-.5c1.306-.623,2.6-1.269,3.906-1.892a4.643,4.643,0,0,1,1.113-.371c-4.943,4.088-10.292,7.039-17.022,6.02a14.807,14.807,0,0,1-7.227-3.485c-1.318-1.087-2.594-2.227-3.943-3.275A8.264,8.264,0,0,0,1382.66,1199.239Z" transform="translate(-8.477 -15.302)" fill="#fff"/>
      <path id="Trazado_24088" data-name="Trazado 24088" d="M1417,1185.93c2.014-.413,3.776-.928,5.572-1.111a21.277,21.277,0,0,1,10.763,1.657c2.3.99,4.757,1.6,6.985,2.322-1.723.2-3.687.375-5.637.657a21.64,21.64,0,0,1-10.374-1.323C1422.026,1187.336,1419.675,1186.728,1417,1185.93Z" transform="translate(-35.148 -4.518)" fill="#fff"/>
      <path id="Trazado_24089" data-name="Trazado 24089" d="M1387.659,1194.124a15.682,15.682,0,0,1,10.19-.218c2.507.8,4.989,1.713,7.543,2.316,3.465.818,6.942.146,10.417-.253,2.527-.29,5.088-.3,7.633-.427l.042.45a3.509,3.509,0,0,1-1.119.216c-3.416-.506-6.626.5-9.867,1.292a25.147,25.147,0,0,1-7.473,1.026,16.551,16.551,0,0,1-6.346-1.925c-2.236-1.1-4.46-2.251-6.993-2.459C1390.44,1194.039,1389.177,1194.124,1387.659,1194.124Z" transform="translate(-12.36 -11.086)" fill="#fff"/>
      <path id="Trazado_24090" data-name="Trazado 24090" d="M1371.944,1206.7a2.175,2.175,0,0,1-.152-.379c-.18-2.186.061-2.434,2.264-2.553a6.754,6.754,0,0,1,4.649,1.542c1.372,1.077,2.658,2.265,4.016,3.36.95.766,1.96,1.457,2.919,2.283C1381.228,1208.923,1377,1206.271,1371.944,1206.7Z" transform="translate(0 -19.315)" fill="#fff"/>
      <path id="Trazado_24091" data-name="Trazado 24091" d="M1457.314,1210.307c4.44.744,8.56-.621,12.734-1.753a21.71,21.71,0,0,1,5.193-.6c-2.665,1.154-5.3,2.375-8,3.444C1463.772,1212.768,1460.507,1211.794,1457.314,1210.307Z" transform="translate(-66.457 -22.573)" fill="#fff"/>
      <path id="Trazado_24092" data-name="Trazado 24092" d="M1406.888,1179.978a24.909,24.909,0,0,0-11.761,1.506,24.562,24.562,0,0,1-5.226.843C1392.975,1179.125,1402.123,1177.75,1406.888,1179.978Z" transform="translate(-14.101)" fill="#fff"/>
      <path id="Trazado_24093" data-name="Trazado 24093" d="M1535.633,1206.362v2.239h-5.5A9.441,9.441,0,0,1,1535.633,1206.362Z" transform="translate(-123.009 -21.34)" fill="#fff"/>
    </g>
  </g>
</svg>
