<svg xmlns="http://www.w3.org/2000/svg" width="54.367" height="62.694" viewBox="0 0 54.367 62.694">
  <g id="Grupo_16344" data-name="Grupo 16344" transform="translate(-193.074 -868)">
    <path id="Trazado_24051" data-name="Trazado 24051" d="M228.115,868q6.108,6.09,12.223,12.173a1.9,1.9,0,0,1,.6,1.463c-.012,5.367,0,10.734-.016,16.1a1.034,1.034,0,0,0,.507,1,13.7,13.7,0,1,1-10.7-2.046c.436-.1.552-.256.548-.681-.019-2.265-.005-4.53-.011-6.8,0-1-.373-1.362-1.375-1.364-2.161,0-4.321,0-6.553,0-.015.246-.038.459-.038.673,0,2.2,0,4.408,0,6.612,0,1.163-.325,1.48-1.5,1.481q-4.071,0-8.142,0h-.773v6.653h.645c1.306,0,2.612-.008,3.918,0a1.044,1.044,0,1,1-.022,2.079c-4.551,0-9.1.014-13.652-.006A3.063,3.063,0,0,1,200.7,902.3q-.041-6.734,0-13.468a3.1,3.1,0,0,1,3.164-3.072c1.979-.02,3.959-.005,5.938-.005q10.01,0,20.019,0a3.2,3.2,0,0,1,3.534,3.52q0,3.153,0,6.306v.578l5.433.95V882.226h-1.5c-2.122,0-4.245.013-6.367,0a4.153,4.153,0,0,1-4.255-4.263c-.018-2.591,0-5.182,0-7.873H197.649a2.168,2.168,0,0,0-2.463,2.488q0,26.784,0,53.568a2.17,2.17,0,0,0,2.485,2.465H236.3a2.137,2.137,0,0,0,2.515-2.124,1.041,1.041,0,1,1,2.072.171,4.17,4.17,0,0,1-3.923,4.031c-.224.012-.449.008-.673.008H197.724c-2.926,0-4.625-1.705-4.625-4.644q0-26.478-.026-52.956c-.006-2.292.712-4.343,3.571-5.094Zm5.6,53.672a11.616,11.616,0,1,0-11.6-11.67A11.639,11.639,0,0,0,233.714,921.672Zm-20.844-33.8v6.608h8.282V887.87Zm-2.148-.016c-2.355,0-4.654-.017-6.953.011-.622.008-.98.482-.988,1.173-.013,1.04,0,2.08,0,3.119,0,.766,0,1.532,0,2.31h7.945Zm-7.944,8.791c0,1.831,0,3.58,0,5.33,0,.918.382,1.288,1.311,1.289q3.056.005,6.112,0c.174,0,.347-.023.495-.033v-6.586Zm34.26-16.515-8.27-8.261c0,2.061-.044,4.236.02,6.408a1.923,1.923,0,0,0,1.876,1.843C232.822,880.152,234.981,880.13,237.038,880.13Z" transform="translate(0)" fill="#fff"/>
    <path id="Trazado_24052" data-name="Trazado 24052" d="M247.137,1175.079q-2.967,0-5.934,0a2.949,2.949,0,0,1-.728-.062,1.02,1.02,0,0,1,.006-1.971,2.413,2.413,0,0,1,.606-.059q6.057,0,12.114,0a2.5,2.5,0,0,1,.666.068,1.021,1.021,0,0,1-.007,1.956,2.762,2.762,0,0,1-.727.068Q250.135,1175.084,247.137,1175.079Z" transform="translate(-39.017 -255.092)" fill="#fff"/>
    <path id="Trazado_24053" data-name="Trazado 24053" d="M245.84,1127.171c-1.548,0-3.1,0-4.645,0a2.886,2.886,0,0,1-.726-.063,1.019,1.019,0,0,1,.015-1.969,3.067,3.067,0,0,1,.727-.06q4.644-.005,9.289,0a3.586,3.586,0,0,1,.609.036,1.026,1.026,0,0,1-.016,2.027,3.787,3.787,0,0,1-.609.032Q248.163,1127.174,245.84,1127.171Z" transform="translate(-39.018 -215.02)" fill="#fff"/>
    <path id="Trazado_24054" data-name="Trazado 24054" d="M426.6,1091.505a1.1,1.1,0,0,0-.9-1.266c-.347-.118-.7-.219-1.046-.337a3.059,3.059,0,0,1-2.219-2.786,3.21,3.21,0,0,1,1.622-3.365.752.752,0,0,0,.474-.684,1,1,0,0,1,1.071-1.013c.561.022.885.4,1.008,1.035a1.046,1.046,0,0,0,.426.619,3.173,3.173,0,0,1,1.634,2.511,1.073,1.073,0,0,1-.905,1.3c-.576.073-1.022-.311-1.159-1-.165-.829-.669-1.222-1.343-1.022a1.05,1.05,0,0,0-.756,1.067,1.168,1.168,0,0,0,.731,1.335c.42.154.857.263,1.28.409a3.121,3.121,0,0,1,2.176,3.072,3.174,3.174,0,0,1-2.016,3.248c-.288.112-.477.194-.5.565a.97.97,0,0,1-1,.949.988.988,0,0,1-1.037-.986,1.212,1.212,0,0,0-.6-1.081,2.9,2.9,0,0,1-1.1-2.107,1.082,1.082,0,0,1,.912-1.3c.572-.073,1.019.318,1.15,1,.169.888.865,1.357,1.507.935a3.624,3.624,0,0,0,.737-1Z" transform="translate(-191.824 -179.039)" fill="#fff"/>
  </g>
</svg>
